<?xml version="1.0" encoding="UTF-8" standalone="no"?>
<!DOCTYPE svg PUBLIC "-//W3C//DTD SVG 1.1//EN" "http://www.w3.org/Graphics/SVG/1.1/DTD/svg11.dtd">
<svg width="100%" height="100%" viewBox="0 0 48 48" version="1.1" xmlns="http://www.w3.org/2000/svg" xmlns:xlink="http://www.w3.org/1999/xlink" xml:space="preserve" xmlns:serif="http://www.serif.com/" style="fill-rule:evenodd;clip-rule:evenodd;stroke-linejoin:round;stroke-miterlimit:2;">
    <g id="Black" transform="matrix(0.929038,0,0,0.929038,-741.527,-146.943)">
        <g id="Icons">
            <g id="Black1" serif:id="Black">
                <path id="Codepen" d="M847.982,176.419C847.978,176.387 847.97,176.359 847.966,176.329C847.955,176.271 847.944,176.212 847.93,176.157C847.92,176.122 847.907,176.089 847.896,176.056C847.88,176.005 847.864,175.956 847.844,175.906C847.831,175.872 847.814,175.837 847.798,175.806C847.777,175.758 847.754,175.713 847.727,175.669C847.709,175.636 847.688,175.605 847.669,175.573C847.641,175.53 847.613,175.488 847.582,175.447C847.559,175.417 847.535,175.387 847.511,175.359C847.478,175.32 847.444,175.282 847.408,175.246C847.381,175.219 847.355,175.19 847.327,175.167C847.288,175.132 847.249,175.099 847.21,175.068C847.178,175.044 847.148,175.02 847.117,174.997C847.105,174.99 847.094,174.979 847.082,174.972L825.145,160.347C824.452,159.885 823.55,159.885 822.856,160.347L800.92,174.972C800.908,174.979 800.897,174.99 800.885,174.997C800.852,175.02 800.822,175.044 800.792,175.068C800.752,175.099 800.713,175.132 800.675,175.167C800.646,175.19 800.62,175.219 800.593,175.246C800.557,175.282 800.522,175.32 800.491,175.359C800.465,175.387 800.441,175.417 800.419,175.447C800.389,175.488 800.36,175.53 800.333,175.573C800.312,175.605 800.293,175.636 800.273,175.669C800.247,175.713 800.225,175.758 800.203,175.806C800.188,175.837 800.171,175.872 800.158,175.906C800.136,175.956 800.12,176.005 800.104,176.056C800.093,176.089 800.081,176.122 800.072,176.157C800.057,176.212 800.047,176.271 800.036,176.329C800.03,176.359 800.023,176.387 800.02,176.419C800.008,176.506 800,176.596 800,176.688L800,191.313C800,191.403 800.008,191.493 800.02,191.583C800.023,191.611 800.03,191.641 800.036,191.671C800.047,191.73 800.057,191.787 800.072,191.844C800.081,191.878 800.093,191.911 800.104,191.944C800.12,191.994 800.136,192.045 800.158,192.095C800.171,192.129 800.188,192.162 800.203,192.195C800.225,192.241 800.247,192.286 800.273,192.333C800.293,192.364 800.312,192.396 800.333,192.427C800.36,192.47 800.389,192.511 800.419,192.552C800.441,192.583 800.465,192.613 800.491,192.642C800.522,192.679 800.557,192.718 800.593,192.753C800.62,192.781 800.646,192.808 800.675,192.833C800.713,192.868 800.752,192.901 800.792,192.933C800.822,192.957 800.852,192.981 800.885,193.003C800.897,193.011 800.908,193.021 800.92,193.029L822.856,207.654C823.202,207.885 823.601,208 824,208C824.399,208 824.798,207.885 825.145,207.654L847.082,193.029C847.094,193.021 847.105,193.011 847.117,193.003C847.148,192.981 847.178,192.957 847.21,192.933C847.249,192.901 847.288,192.868 847.327,192.833C847.355,192.808 847.381,192.781 847.408,192.753C847.444,192.718 847.478,192.679 847.511,192.642C847.535,192.613 847.559,192.583 847.582,192.552C847.613,192.511 847.641,192.47 847.669,192.427C847.688,192.396 847.709,192.364 847.727,192.333C847.754,192.286 847.777,192.241 847.798,192.195C847.814,192.162 847.831,192.129 847.844,192.095C847.864,192.045 847.88,191.994 847.896,191.944C847.907,191.911 847.92,191.878 847.93,191.844C847.944,191.787 847.955,191.73 847.966,191.671C847.97,191.641 847.978,191.611 847.982,191.583C847.994,191.493 848,191.403 848,191.313L848,176.688C848,176.596 847.994,176.506 847.982,176.419ZM826.063,165.918L842.223,176.69L835.006,181.519L826.063,175.537L826.063,165.918ZM821.938,165.918L821.938,175.537L812.996,181.519L805.777,176.69L821.938,165.918ZM804.125,180.549L809.287,184L804.125,187.452L804.125,180.549ZM821.938,202.083L805.777,191.31L812.996,186.482L821.938,192.463L821.938,202.083ZM824,188.88L816.706,184L824,179.121L831.296,184L824,188.88ZM826.063,202.083L826.063,192.463L835.006,186.482L842.223,191.31L826.063,202.083ZM843.875,187.452L838.715,184L843.875,180.549L843.875,187.452Z" style="fill:white;stroke:white;stroke-width:1.08px;"/>
            </g>
        </g>
    </g>
</svg>
